<?xml version="1.0" encoding="UTF-8"?>
<svg id="Layer_2" data-name="Layer 2" xmlns="http://www.w3.org/2000/svg" viewBox="0 0 1000 1000">
  <defs>
    <style>
      .cls-1 {
        fill: #b8872f;
      }
    </style>
  </defs>
  <g id="Layer_2-2" data-name="Layer 2">
    <g>
      <path class="cls-1" d="m500,0C223.858,0,0,223.858,0,500s223.858,500,500,500,500-223.858,500-500S776.142,0,500,0Zm0,979.167c-264.636,0-479.167-214.53-479.167-479.167S235.364,20.833,500,20.833s479.167,214.53,479.167,479.167-214.53,479.167-479.167,479.167Z"/>
      <path class="cls-1" d="m843.331,560.514c10.749,4.447,21.885,7.517,33.538,8.351,13.341.954,25.932-1.272,37.181-8.623,13.279-8.679,19.382-27.581,12.791-42.01-4.295-9.402-11.655-15.549-21.224-18.934-3.062-1.084-6.331-1.698-9.556-2.181-4.828-.723-4.949-.707-5.083-5.834-.017-.691.009-1.384-.039-2.073-.942-13.235-7.035-23.208-18.651-29.808-9.687-5.504-20.074-5.828-30.708-4.451-5.031.651-5.079.784-7.02-3.711-3.025-7.005-7.708-12.66-13.795-17.171-10.843-8.037-23.066-11.439-36.503-10.869-21.117.896-37.638,9.21-47.26,28.893-1.761,3.602-1.836,3.497-6.083,2.937-5.293-.698-10.536-1.3-15.959-.609-18.039,2.3-34.513,17.379-33.79,38.164.129,3.69-.154,3.767-4.046,4.42-3.561.597-7.208,1.086-10.594,2.263-13.847,4.814-23.457,17.094-23.804,30.939-.381,15.132,6.572,26.12,20.145,32.832,10.017,4.954,20.637,6.542,31.717,5.469,2.404-.232,4.83-.332,7.246-.33,1.388.001,1.78.901,1.112,2.099-.502.901-1.101,1.756-1.721,2.583-9.205,12.298-21.839,18.222-36.837,19.453-8.315.682-16.55-.3-24.714-2.043-13.172-2.813-26.364-3.213-39.575-.072-2.603.619-4.312-1.061-3.819-3.691,2.463-13.158,3.247-26.323,1.439-39.673-3.387-25.016-15.189-45.6-32.599-63.341-.428-.437-1.108-.627-1.672-.932.169.605.232,1.265.522,1.803,3.28,6.076,6.851,12.009,9.855,18.218,9.743,20.138,12.467,41.286,7.507,63.101-4.117,18.1-13.247,33.68-26.071,47.053-18.861,19.669-41.501,33.65-66.621,43.81-1.591.643-3.477.557-5.226.81,1.242-1.086,2.369-2.354,3.743-3.232,20.009-12.792,39.103-26.672,54.701-44.859,10.796-12.588,19.615-26.362,24.875-42.138,9.079-27.226,6.683-53.451-7.821-78.364-8.553-14.692-20.276-26.513-33.381-37.21-12.426-10.144-23.015-21.912-29.21-37.08-3.562-8.722-4.537-17.713-2.956-26.937,2.29-13.367,9.499-23.951,19.405-32.809,9.148-8.179,18.617-15.994,25.282-26.551,5.854-9.272,9.187-19.345,9.664-30.25.59-13.485-3.656-25.573-11.866-36.166-3.691-4.762-7.973-9.07-12.068-13.511-4.633-5.024-8.398-10.556-10.179-17.226-.868-3.253-.364-3.961,2.809-4.83,3.33-.911,6.706-1.665,10.016-2.642,9.047-2.67,17.163-7.352,25.035-12.342,6.755-4.282,13-5.179,20.915-2.332,14.688,5.282,29.996,7.962,45.824,5.876,10.86-1.43,20.816-4.785,29.419-11.775,16.019-13.017,17.653-36.632,3.4-51.462-7.511-7.815-16.758-12.084-27.629-12.421-3.935-.122-7.094-3.252-7.291-7.183-.31-6.204-2.241-12.054-5.696-17.439-5.961-9.289-14.709-14.413-24.941-17.361-7.439-2.142-15.031-1.77-22.608-.565-4.063.646-4.631.443-6.117-2.929-7.05-16.003-19.862-24.733-36.297-28.918-10.384-2.645-20.871-2.971-31.308-.574-17.363,3.989-31.326,12.606-38.697,29.68-1.097,2.541-2.788,2.983-5.381,2.681-4.272-.5-8.617-.918-12.899-.718-21.729,1.015-38.398,15.465-40.387,37.644-.479,5.34-.534,5.473-5.868,5.579-7.286.144-14.03,2.13-20.158,5.914-17.389,10.736-21.218,30.085-15.328,44.046,4.463,10.578,12.512,17.237,22.739,21.452,11.639,4.798,23.925,5.532,36.194,3.657,9.189-1.404,18.253-3.762,27.268-6.097,3.459-.896,6.45-.801,9.416.993,3.103,1.876,6.15,3.844,9.23,5.758,2.639,1.641,5.243,3.345,7.944,4.878,7.317,4.15,15.297,6.337,23.544,7.616,4.755.737,7.539,3.049,8.907,7.981,2.47,8.901,6.764,16.939,13.164,23.814,2.926,3.144,5.573,6.632,7.857,10.27,4.41,7.025,6.95,14.87,6.431,23.129-.605,9.641-3.91,18.452-10.289,26.07-6.306,7.53-14.196,13.091-21.906,18.925-9.377,7.096-18.72,14.217-25.997,23.641-14.529,18.816-20.143,39.779-15.504,63.283.322,1.634.337,3.33.495,4.996-1.563-.815-3.322-1.389-4.657-2.482-10.966-8.971-23.064-15.815-36.698-19.804-13.36-3.909-27.006-2.733-40.562-1.629-11.541.94-23.215-.88-33.695-5.804-6.685-3.141-12.689-7.416-17.174-13.458-2.908-3.916-2.62-4.314,1.807-6.042,6.794-2.653,13.481-5.585,20.147-8.547,2.587-1.15,5.063-2.521,7.526-3.918,4.102-2.327,7.966-2.325,12.442-.611,13.688,5.241,27.841,8.006,42.606,6.264,7.648-.902,14.88-3.043,21.419-7.213,12.547-8.003,19.065-21.811,16.724-35.36-2.704-15.651-14.358-26.775-31.139-29.227-1.373-.201-2.763-.256-4.148-.325-2.405-.118-3.807-1.045-3.881-3.486-.027-.864-.05-1.729-.122-2.589-1.373-16.439-11.451-28.767-27.341-33.456-6.233-1.84-12.488-2.189-18.934-.999-4.603.85-4.731.591-6.552-3.676-3.648-8.548-9.571-15.11-17.285-20.149-11.705-7.646-24.744-9.792-38.258-8.061-18.074,2.315-32.272,10.743-39.944,28.152-1.705,3.869-2.43,4.382-6.853,3.543-5.031-.955-9.929-.674-14.915.207-15.132,2.674-26.791,13.631-30.026,28.594-.542,2.505-.582,5.14-.65,7.721-.072,2.709-1.126,4.106-3.997,4.258-2.574.136-5.144.599-7.684,1.088-21.586,4.155-33.807,28.561-24.248,48.325,7.068,14.612,19.765,20.725,34.919,22.563,13.973,1.695,27.655-.612,40.703-5.585,5.218-1.989,9.58-1.941,14.231.716,1.947,1.112,4.048,1.951,6.018,3.028,9.926,5.429,20.247,9.727,31.613,10.968,3.584.391,6.07,2.209,7.84,5.243.87,1.491,1.813,2.944,2.786,4.371,8.857,12.984,20.7,22.059,35.534,27.296,10.462,3.693,21.252,4.432,31.656,3.9l-.009-.006c4.526,0,8.504-.101,12.476.021,8.701.267,17.15,1.814,25.26,5.104,11.807,4.79,21.451,12.521,29.713,22.023,8.888,10.222,18.828,19.279,29.539,27.513,6.643,5.106,12.312,11.106,16.992,18.028,15.429,22.822,17.504,47.062,7.598,72.55-4.964,12.772-12.775,23.661-22.139,33.521-12.24,12.888-26.495,23.223-41.648,32.323-16.736,10.05-33.879,19.435-50.465,29.719-33.411,20.715-61.655,46.666-80.529,81.778-10.971,20.411-17.92,41.875-17.365,65.343.065,2.764.14,5.531.052,8.293-.021.662-.676,1.304-1.039,1.955-.412-.512-1.064-.969-1.199-1.546-2.719-11.672-6.305-23.234-4.824-35.461.177-1.463.343-3.869.39-5.342.152-4.765-.08-5.096-3.785-3.084-4.402,2.391-8.717,4.967-13.233,7.121-24.598,11.732-50.121,14.783-76.713,8.119-15.827-3.967-29.964-11.417-43.381-20.429l-.098-.066c-1.807-1.215-3.922,1.018-2.622,2.765,74.3,99.834,188.271,168.389,318.582,182.334-8.739-5.662-17.116-11.916-25.015-18.95-19.703-17.545-36.064-37.622-47.059-61.815-6.513-14.333-10.259-29.349-10.992-45.031-.589-12.589,2.009-24.748,6.514-36.468,8.523-22.167,22.687-40.157,41.047-55.01,17.464-14.13,37.04-24.677,57.291-34.153,18.774-8.784,37.798-17.075,55.504-28.004,19.492-12.032,36.492-26.706,49.483-45.75.867-1.271,1.875-2.502,3.026-3.514,16.945-14.891,36.745-19.799,58.812-16.72,10.48,1.463,20.948,2.102,31.433-.084,18.566-3.871,32.731-14.55,43.809-29.318,4.968-6.622,10.336-12.331,17.312-16.767,2.774-1.764,5-1.864,7.648-.459,2.9,1.539,5.756,3.166,8.71,4.594,22.313,10.787,44.834,11.587,67.511,1.185,6.118-2.806,12.139-5.825,18.186-8.782,3.145-1.538,6.146-1.503,9.442-.14ZM497.16,204.364c-.192,2.863-1.261,5.705-2.187,8.47-.755,2.254-2.788,3.065-4.98,2.997-2.402-.076-4.816-.362-7.182-.792-8.341-1.515-15.73-5.15-22.261-10.493-3.195-2.614-3.092-3.83.537-5.467,8.236-3.714,16.82-6.263,24.981-7.064h-.001c6.912-.014,11.564,5.353,11.094,12.349Zm-34.273-16.703c-5.13,2.04-10.268,4.195-15.075,6.884-13.409,7.503-27.59,9.732-42.556,6.753-7.609-1.514-15.118-3.535-22.66-5.377-.815-.199-1.617-.642-2.273-1.163-.562-.446-.307-1.366.405-1.45,1.009-.12,2.051-.011,3.076.075,9.801.834,19.587,1.948,29.404,2.411,5.306.25,10.667-.575,15.997-1.014.733-.061,1.418-.703,2.125-1.076-.612-.29-1.208-.619-1.838-.866-13.667-5.353-27.351-10.663-40.992-16.084-1.665-.662-3.098-1.908-4.639-2.884,1.955-1.818,3.823-.221,5.607.282,16.124,4.546,32.215,9.211,48.335,13.77,1.628.461,3.382.522,5.085.633.378.025,1.017-.463,1.123-.833.096-.333-.273-.959-.616-1.227-.952-.74-1.998-1.357-3.003-2.029-13.207-8.839-26.418-17.673-39.612-26.533-.997-.669-1.921-1.471-2.77-2.319-.256-.255-.143-.878-.199-1.333.319-.034.695-.196.95-.083,1.577.698,3.162,1.392,4.68,2.206,15.223,8.165,30.434,16.353,45.646,24.539.76.41,1.469,1.144,2.255,1.226,1.42.148,2.882-.082,4.327-.153-.581-1.109-.929-2.454-1.778-3.291-11.436-11.288-22.941-22.505-34.429-33.739-1.235-1.209-2.577-2.33-3.669-3.657-.892-1.084-1.485-2.414-2.21-3.636,1.202.564,2.577.915,3.581,1.725,15.056,12.145,30.062,24.351,45.078,36.547.402.327.725.876,1.172.995,1.051.281,2.153.363,3.234.525-.143-1.076.038-2.353-.482-3.196-2.539-4.117-5.264-8.119-7.924-12.16-7.315-11.113-14.631-22.226-21.94-33.342-.473-.72-.986-1.436-1.301-2.225-.151-.38.117-.926.196-1.397.472.129,1.042.132,1.392.412.667.533,1.221,1.211,1.798,1.85,11.836,13.086,22.518,27.094,32.996,41.267,1.331,1.801,2.826,3.487,4.315,5.163.284.32,1.234.575,1.307.469.332-.486.726-1.169.614-1.674-.297-1.341-.776-2.654-1.299-3.93-7.077-17.26-14.2-34.503-21.228-51.783-.65-1.598-.736-3.425-1.084-5.146,1.06,1.264,2.284,2.424,3.155,3.806,10.522,16.7,18.84,34.57,27.621,52.195.386.774.642,1.64,1.156,2.311.551.719,1.337,1.258,2.022,1.875.135-.814.482-1.659.368-2.437-.75-5.125-1.514-10.249-2.432-15.346-3.001-16.651-6.069-33.289-9.111-49.933-.093-.51-.323-1.036-.258-1.524.121-.911.413-1.799.634-2.697.501.647,1.193,1.223,1.465,1.955.662,1.777,1.168,3.614,1.67,5.445,5.295,19.314,10.553,38.638,15.905,57.936.457,1.651,1.524,3.132,2.308,4.691.268-1.656.71-3.306.776-4.97.332-8.281.509-16.569.846-24.85.646-15.869,1.361-31.735,2.057-47.602.03-.687.052-1.406.274-2.041.129-.369.619-.662,1.013-.856.102-.049.599.375.662.641.236,1.002.469,2.022.52,3.045.775,15.175,1.569,30.351,2.253,45.53.427,9.488.675,18.983,1.012,28.475.024.688.062,1.385.201,2.056.058.283.443.745.598.714.439-.087,1.087-.294,1.207-.618.539-1.453.953-2.955,1.359-4.453,5.337-19.664,10.653-39.334,16.007-58.993.498-1.828,1.176-3.611,1.859-5.381.149-.381.676-.618,1.03-.921.196.435.589.886.556,1.301-.139,1.716-.331,3.436-.64,5.131-3.689,20.218-7.404,40.432-11.113,60.647-.031.169-.127.342-.109.504.159,1.409.337,2.816.51,4.223.978-1.061,2.247-1.971,2.887-3.206,7.236-13.948,14.324-27.972,21.572-41.913,2.229-4.287,4.788-8.405,7.291-12.543.481-.795,1.406-1.322,2.126-1.973-.007,1.084.305,2.296-.072,3.23-2.849,7.047-5.821,14.043-8.777,21.045-4.771,11.3-9.56,22.593-14.34,33.89-.269.637-.675,1.267-.735,1.927-.07.774.168,1.575.272,2.364.903-.249,2.011-.255,2.662-.804,1.036-.871,1.761-2.11,2.629-3.185,11.503-14.239,23.009-28.477,34.516-42.713.326-.402.605-.901,1.027-1.154.801-.48,1.688-.816,2.539-1.212-.251.909-.289,1.96-.785,2.705-9.57,14.382-19.192,28.729-28.805,43.083-.578.862-1.282,1.662-1.716,2.59-.614,1.31-1.779,3.613-1.405,3.922,1.828,1.516,3.458.071,4.943-1.156,7.723-6.385,15.382-12.847,23.185-19.131,7.668-6.175,15.463-12.194,23.263-18.204.809-.624,2.021-.725,3.046-1.069-.572,1.005-.986,2.158-1.75,2.983-1.286,1.387-2.839,2.524-4.205,3.842-11.69,11.274-23.363,22.565-35.04,33.854-.62.599-1.249,1.197-1.826,1.837-1.281,1.419-.461,2.496.931,2.492,1.632-.004,3.412-.471,4.869-1.232,8.115-4.238,16.143-8.644,24.22-12.956,8.535-4.556,17.087-9.08,25.643-13.596.911-.48,1.885-.852,2.861-1.185.232-.079.741.127.846.338.116.234.027.757-.169.927-1.169,1.011-2.328,2.057-3.611,2.911-13.666,9.089-27.364,18.13-41.018,27.238-1.046.698-1.82,1.802-2.721,2.718,1.438.127,2.983.66,4.297.313,9.351-2.466,18.667-5.066,27.968-7.712,8.637-2.458,17.242-5.032,25.865-7.54.66-.192,1.356-.386,2.026-.358.385.017.819.425,1.086.769.096.122-.153.723-.387.854-1.342.76-2.675,1.574-4.104,2.136-13.821,5.442-27.662,10.839-41.497,16.245-.643.251-1.317.429-1.945.714-.447.203-.84.529-1.257.8.455.14.902.361,1.367.405,3.776.363,7.58,1.151,11.33.949,11.884-.642,23.746-1.679,35.621-2.496,1.265-.087,2.561.273,3.843.425-1.009.751-1.911,1.862-3.042,2.196-11.77,3.469-23.549,6.97-36.528,6.562h-.001c-8.577.685-16.796-2.021-24.948-5.787-10.017-4.627-20.098-9.348-30.575-12.706-23.632-7.574-47.075-5.523-69.978,3.583Zm46.278,22.134c-1.396-4.737-.666-9.162,1.72-13.421,1.691-3.019,4.225-4.427,7.634-4.288,9.627.393,18.521,3.561,27.245,7.314,1.624.699,2.091,1.993.513,3.145-9.015,6.585-18.754,11.479-28.899,12.477h0c-5.62.016-6.976-1.024-8.214-5.227Zm-214.921,153.687h0c0,7.49-1.532,8.927-8.845,7.888-8.357-1.187-15.782-4.812-22.77-9.355-2.379-1.546-2.314-2.845.538-3.893,6.445-2.368,12.946-4.748,19.617-6.285,6.549-1.509,10.549,1.872,11.442,8.549.135,1.014.018,2.063.018,3.095Zm-27.645-17.057c-6.562,2.617-12.844,5.956-19.183,9.108-6.396,3.18-12.929,5.958-20.177,6.069-4.462.069-9.012-.036-13.383-.829-6.442-1.169-12.769-2.984-19.123-4.611-1.317-.337-2.568-.999-3.778-1.644-.347-.185-.446-.837-.658-1.274.463-.186.946-.571,1.385-.527,4.287.431,8.557,1.208,12.852,1.362,9.312.333,18.636.376,27.955.465.726.007,1.458-.559,2.188-.859-.659-.483-1.254-1.115-1.985-1.427-11.595-4.954-23.23-9.812-34.788-14.849-1.685-.734-3.022-2.272-4.519-3.438,1.799.346,3.648.528,5.387,1.066,13.855,4.287,27.676,8.687,41.549,12.92,1.843.561,4.706,2.141,5.655,0,.952-2.148-2.286-2.884-3.817-3.976-11.812-8.423-23.702-16.736-35.564-25.09-.563-.397-1.161-.791-1.591-1.312-.257-.312-.216-.869-.309-1.315.478-.024,1.009-.194,1.422-.043.804.296,1.552.753,2.304,1.174,14.024,7.837,28.046,15.677,42.065,23.521.603.337,1.171.734,1.77,1.078,1.536.883,3.465,1.953,4.71.329,1.591-2.075-1.093-2.874-2.111-3.917-11.224-11.5-22.558-22.893-33.8-34.374-.849-.868-1.229-2.196-1.827-3.31,1.151.517,2.494.806,3.424,1.587,13.358,11.22,26.661,22.506,39.977,33.777.132.112.233.284.382.345,1.315.534,2.638,1.05,3.96,1.571-.338-1.393-.343-2.993-1.064-4.146-8.519-13.622-17.145-27.178-25.743-40.748-.738-1.166-1.517-2.307-2.215-3.497-.14-.238-.067-.902.025-.926.426-.112,1.104-.269,1.313-.049,1.425,1.501,2.83,3.031,4.101,4.662,9.977,12.802,19.906,25.639,29.904,38.424.788,1.009,1.975,1.706,2.977,2.547-.112-1.282.061-2.671-.379-3.828-4.244-11.135-8.56-22.244-12.923-33.333-2.467-6.269-5.107-12.47-7.553-18.746-.376-.963-.125-2.17-.164-3.264.695.698,1.606,1.28,2.052,2.111,6.043,11.262,12.126,22.505,17.972,33.869,2.999,5.831,5.504,11.916,8.332,17.838.528,1.106,1.532,1.984,2.316,2.967.104-1.167.447-2.37.274-3.495-1.079-6.995-2.217-13.983-3.44-20.954-2.295-13.093-4.661-26.174-6.998-39.259-.153-.849-.437-1.699-.431-2.546.004-.569.412-1.136.639-1.704.352.345.814.634,1.031,1.049.314.602.482,1.289.66,1.954,5.244,19.685,10.474,39.375,15.732,59.056.431,1.611,1.053,3.17,1.587,4.753.352-1.743.956-3.478,1.014-5.231.395-11.909.536-23.827,1.031-35.73.46-11.034,1.24-22.055,1.943-33.078.044-.688.639-1.34.978-2.009.33.563.809,1.091.954,1.699.238,1,.317,2.048.363,3.08.471,10.525.994,21.048,1.361,31.576.426,12.253.71,24.511,1.059,36.767.02.691-.027,1.406.148,2.058.104.388.559.708.921.968.054.039.603-.38.691-.66.518-1.642.996-3.298,1.433-4.963,5.042-19.199,10.051-38.407,15.158-57.588.362-1.359,1.434-2.528,2.177-3.786.119,1.414.55,2.882.31,4.231-3.556,20.064-7.201,40.112-10.827,60.163-.122.679-.399,1.354-.391,2.028.009.622.304,1.24.473,1.859.546-.312,1.326-.492,1.593-.961.932-1.65,1.656-3.416,2.516-5.108,7.902-15.547,15.788-31.102,23.77-46.608.727-1.412,2.09-2.497,3.157-3.733,1.629,2.028-.254,3.525-.889,5.116-6.721,16.847-13.539,33.655-20.248,50.507-.451,1.132-.24,2.529-.337,3.804,1.019-.795,2.26-1.421,3.023-2.413,8-10.406,15.864-20.919,23.899-31.298,3.275-4.23,6.854-8.226,10.357-12.274.35-.404,1.131-.434,1.713-.638-.042.629.136,1.396-.159,1.865-4.128,6.586-8.304,13.142-12.501,19.684-5.13,7.997-10.29,15.974-15.435,23.962-.374.582-.893,1.136-1.047,1.775-.21.866-.132,1.802-.176,2.708.951-.178,2.12-.066,2.814-.587,2.346-1.757,4.528-3.733,6.764-5.635,11.842-10.067,23.678-20.139,35.529-30.194.65-.551,1.396-1.005,2.148-1.41.219-.119.717-.014.897.171.177.181.264.71.129.893-.714.965-1.447,1.93-2.288,2.781-11.048,11.187-22.116,22.356-33.18,33.529-.729.737-1.62,1.366-2.164,2.218-.479.75-.58,1.742-.847,2.628.968.145,2.013.59,2.885.364,1.309-.339,2.53-1.089,3.73-1.768,11.576-6.553,23.134-13.136,34.709-19.689,2.555-1.447,5.122-2.882,7.752-4.183,1.164-.576,2.499-.807,3.756-1.194-.911,1.095-1.654,2.413-2.762,3.245-4.834,3.628-9.712,7.202-14.687,10.634-7.678,5.298-15.461,10.444-23.155,15.721-.716.491-1.104,1.458-1.645,2.205.948.22,1.998.823,2.825.598,5.998-1.631,11.967-3.372,17.912-5.189,10.072-3.078,20.111-6.269,30.192-9.319,1.191-.361,2.557-.143,3.842-.193-.999.832-1.874,1.96-3.02,2.447-11.283,4.794-22.621,9.457-33.915,14.223-1.861.785-3.587,1.892-5.375,2.851,1.917.379,3.82.982,5.75,1.089,3.273.181,6.562.05,9.844.05q-.014-.153,0,0c8.752-.835,17.547-1.21,26.299-2.043.515-.05,1.069-.212,1.538-.083.573.158,1.074.572,1.606.875-.312.378-.55.916-.951,1.103-1.091.511-2.22,1.013-3.389,1.274-8.919,1.992-17.772,4.586-26.804,5.684-8.438,1.026-16.801-.695-24.638-4.554-8.512-4.193-17.03-8.461-25.844-11.939-20.983-8.28-41.993-6.932-62.666,1.313Zm46.313,25.163h0c-3.105.338-5.367-1.17-6.194-4.144-.719-2.583-1.412-5.463-.978-8.018,1.099-6.456,4.777-9.026,11.123-7.473,6.837,1.674,13.484,4.132,20.188,6.326,1.398.457,2.936,1.591,1.02,2.88-7.482,5.033-15.326,9.349-24.514,10.427-.17.02-.344.002-.646.002Zm464.288,190.919c-1.388,2.457-3.716,2.855-6.358,3.275-3.806-1.054-7.741-1.786-11.384-3.246-4.305-1.725-8.438-3.937-12.489-6.217-2.299-1.293-2.261-2.629.002-3.717,7.502-3.605,15.316-6.3,23.667-7.069,3.272-.302,5.575,1.268,7.114,4.157,2.348,4.407,1.809,8.639-.552,12.816Zm-7.791-27.395c-9.851,2.02-19.358,5.156-28.271,9.927-2.59,1.387-5.326,2.511-7.853,3.996-13.589,7.988-28.105,8.96-43.123,5.652-5.726-1.261-11.356-2.977-16.996-4.602-.596-.172-.966-1.128-1.442-1.72.644-.076,1.298-.264,1.932-.211,8.254.707,16.495,1.782,24.763,2.073,6.176.218,12.389-.554,18.584-.925.475-.029.93-.377,1.395-.578-.447-.372-.836-.896-1.349-1.093-6.774-2.598-13.614-5.035-20.341-7.745-5.767-2.323-11.443-4.88-17.091-7.482-1.416-.651-2.568-1.872-3.841-2.831,1.479.144,3.021.066,4.425.47,9.132,2.62,18.227,5.363,27.345,8.028,5.47,1.599,10.96,3.133,16.443,4.687.663.189,1.361.503,2.011.438,1.441-.144,2.862-.492,4.291-.756-.921-.91-1.73-1.988-2.782-2.705-12.7-8.66-25.437-17.266-38.162-25.892-.57-.387-1.171-.762-1.638-1.257-.315-.335-.419-.871-.618-1.317.46-.081,1.008-.362,1.367-.206,1.423.618,2.8,1.345,4.169,2.078,14.317,7.667,28.622,15.354,42.951,22.996,1.575.84,3.441,2.839,5.043.82,1.708-2.153-.992-3.258-2.144-4.424-11.173-11.312-22.448-22.521-33.646-33.807-1.038-1.046-1.75-2.414-2.614-3.633,1.43.683,3.068,1.113,4.258,2.09,12.951,10.632,25.83,21.352,38.733,32.041,1.064.882,2.064,1.933,3.281,2.505.933.439,2.162.248,3.26.337-.162-.917-.069-1.99-.524-2.724-3.822-6.167-7.719-12.288-11.643-18.391-5.607-8.72-11.274-17.401-16.849-26.141-.465-.729-.419-1.783-.611-2.686.811.535,1.821.908,2.401,1.628,9.32,11.571,18.599,23.175,27.852,34.8,2.367,2.974,4.585,6.066,6.946,9.045.369.467,1.136.617,1.719.913.141-.741.597-1.599.374-2.206-2.869-7.777-5.767-15.546-8.798-23.262-3.665-9.326-7.469-18.595-11.195-27.897-.512-1.28-.979-2.584-1.332-3.914-.089-.336.342-.811.534-1.223.297.152.695.229.874.47.514.688.964,1.428,1.396,2.172,9.457,16.309,17.892,33.136,25.582,50.343.493,1.102.999,2.199,1.56,3.266.139.264.678.622.762.561.365-.264.877-.661.888-1.021.033-1.198-.024-2.419-.23-3.6-3.471-19.896-6.985-39.784-10.425-59.685-.216-1.245.107-2.583.178-3.877.722,1.066,1.791,2.037,2.113,3.213,4.793,17.495,9.498,35.014,14.196,52.535.85,3.17,1.562,6.377,2.384,9.556.12.463.502.859.763,1.285.32-.516.846-1.004.923-1.554.261-1.876.47-3.772.507-5.664.098-5.011-.032-10.029.161-15.034.646-16.735,1.368-33.467,2.154-50.196.056-1.2.86-2.365,1.316-3.546.549,1.186,1.169,2.346,1.615,3.569.228.626.176,1.366.199,2.055.473,14.501.935,29.002,1.407,43.504.264,8.112.528,16.225.845,24.335.022.54.495,1.064.757,1.595.28-.405.689-.774.818-1.223.763-2.656,1.444-5.334,2.182-7.997,4.794-17.309,9.563-34.625,14.449-51.909.47-1.661,1.677-3.114,2.542-4.663.068,1.766.463,3.592.151,5.287-3.563,19.367-7.237,38.712-10.872,58.065-.191,1.015-.33,2.043-.41,3.071-.023.293.263.875.384.869.445-.024,1.085-.105,1.282-.405.754-1.15,1.381-2.386,2.027-3.605,8.489-16.026,16.973-32.055,25.459-48.083.081-.154.136-.33.248-.454,1.09-1.207,2.19-2.405,3.287-3.605-.293,1.572-.319,3.254-.918,4.699-6.952,16.756-13.992,33.475-21.005,50.205-.4.955-.85,1.902-1.119,2.895-.113.416.111,1.312.311,1.352.577.117,1.417.131,1.799-.212,1.021-.911,1.9-1.997,2.762-3.074,10.253-12.811,20.457-25.661,30.775-38.42,1.465-1.813,3.47-3.19,5.224-4.768.826,3.019-1.74,4.588-3.033,6.563-8.424,12.866-17.057,25.596-25.526,38.434-.948,1.436-3.32,3.166-1.63,4.87,2.006,2.021,3.717-.444,5.22-1.673,13.508-11.046,26.961-22.158,40.485-33.184,1.239-1.01,2.863-1.546,4.309-2.302-.897,1.354-1.591,2.914-2.721,4.033-11.663,11.552-23.396,23.033-35.112,34.532-.37.363-.884.64-1.112,1.072-.368.696-.555,1.489-.818,2.241.907.295,1.963,1.043,2.692.802,2.281-.757,4.511-1.754,6.634-2.894,13.392-7.198,26.737-14.482,40.135-21.67,1.441-.774,3.114-1.118,4.68-1.661-1.193,1.267-2.198,2.816-3.608,3.759-12.34,8.263-24.77,16.394-37.117,24.645-1.112.743-1.838,2.06-2.743,3.11,1.607.223,3.361.977,4.801.585,10.162-2.768,20.265-5.756,30.378-8.707,5.967-1.741,11.907-3.579,17.888-5.268.795-.224,1.764.17,2.652.278-.627.528-1.172,1.253-1.893,1.556-10.035,4.207-20.083,8.386-30.155,12.505-3.357,1.372-6.794,2.548-10.184,3.839-.302.115-.533.412-.797.624.333.313.654.884,1.001.9,6.536.31,13.092.983,19.607.706,8.26-.352,16.484-1.504,24.73-2.241.524-.047,1.1.507,1.653.781-.435.479-.786,1.236-1.315,1.392-4.307,1.267-8.595,2.673-12.987,3.552-6.919,1.383-13.914,2.387-20.876,3.552h.004c-9.784-.03-18.455-3.013-26.803-7.639-11.526-6.388-23.564-11.548-36.551-14.296-10.82-2.289-21.635-2.211-32.401-.003Zm52.763,20.283c-7.91,5.136-16.34,9.04-25.859,9.914-3.641.335-4.899-.879-6.025-4.307-1.419-4.313-.363-8.205,1.931-11.844,1.713-2.718,4.384-3.772,8.446-3.641h0c6.91.836,14.288,3.108,21.237,6.77,1.683.887,1.885,2.058.268,3.109Z"/>
      <path class="cls-1" d="m273.706,598.049c12.894.052,24.42-4.462,35.753-9.815,8.427-3.98,16.763-8.242,25.452-11.559,25.248-9.638,50.817-11.146,76.403-1.258,5.441,2.103,10.877,4.656,15.64,7.972,6.666,4.641,13.621,4.807,20.762,2.729,12.914-3.758,22.034-12.563,29.245-23.521,4.386-6.667,8.03-13.713,9.751-21.609.139-.64.517-1.227.785-1.839.12.639.355,1.28.344,1.917-.152,9.656-2.597,18.833-6.503,27.551-5.804,12.952-14.458,23.881-24.951,33.385-13.142,11.904-27.982,21.353-43.365,30.014-.814.458-1.845.532-2.774.785-.005-.662-.158-1.362.004-1.98,3.239-12.29-2.71-20.711-11.938-27.43-6.941-5.054-14.949-7.789-23.433-9.185-18-2.963-35.031.438-51.488,7.685-10.903,4.802-21.627,10.145-33.534,12.087-30.552,4.983-55.634-4.09-73.805-29.67-3.482-4.902-7.251-7.781-13.242-8.563-9.34-1.22-17.935-4.89-26.244-9.267-3.813-2.008-7.823-3.641-11.691-5.549-2.992-1.476-5.804-1.422-8.944-.18-10.479,4.142-21.284,7.282-32.573,7.983-15.624.971-30.397-1.626-42.387-12.723-15.616-14.453-14.02-38.893,3.202-51.422,5.842-4.251,12.355-6.818,19.581-7.559,5.461-.56,5.59-.694,5.664-6.382.263-20.557,15.717-33.354,32.38-36.072,5.912-.964,11.696-.359,17.52.255,4.542.478,4.323.44,6.7-3.594,2.523-4.284,5.023-8.743,8.373-12.344,8.187-8.805,18.805-13.565,30.527-15.126,12.851-1.711,25.479-.6,37.273,5.764,9.593,5.177,17.044,12.236,21.559,22.257,1.764,3.915,2.121,3.813,6.321,3.465,5.487-.455,11.052-1.005,16.51-.577,15.99,1.257,33.939,15.624,33.124,35.526-.028.69-.028,1.383.01,2.073.207,3.736.72,4.202,4.656,4.755,2.898.408,5.85.688,8.655,1.467,15.846,4.407,26.585,18.557,26.014,34.52-.469,13.077-7.289,22.551-18.278,28.858-11.105,6.373-23.248,8.204-36.02,6.777-10.395-1.161-20.352-3.812-30.032-7.581-3.48-1.355-6.708-1.347-9.991.231-3.423,1.645-6.765,3.471-10.239,4.997-6.472,2.844-12.965,5.653-19.543,8.238-4.667,1.833-5.022,2.364-1.516,6.203,7.45,8.158,16.78,13.232,27.485,15.638,4.18.94,8.528,1.135,12.8,1.671h-.002Zm19.677-41.68c11.575.225,21.936-2.455,32.233-5.494.825-.244,1.682-.515,2.388-.981.479-.315.72-.99,1.067-1.505-.469-.135-.95-.419-1.403-.381-7.225.608-14.488.96-21.655,1.981-7.147,1.017-14.128-.097-21.169-.65-.592-.047-1.147-.578-1.718-.884.526-.378,1-.888,1.585-1.116,8.37-3.259,16.78-6.416,25.124-9.736,4.653-1.851,9.218-3.927,13.787-5.982.873-.393,1.577-1.159,2.36-1.754-1.075-.046-2.21-.336-3.216-.092-3.354.813-6.665,1.802-9.985,2.751-12.455,3.559-24.902,7.144-37.365,10.677-1.782.505-3.891,1.315-4.964-.874-.188-.384,1.884-2.096,3.103-2.912,12.343-8.266,24.739-16.454,37.079-24.727,1.227-.822,2.176-2.06,3.253-3.106-1.975-1.434-3.133.54-4.444,1.237-13.883,7.377-27.701,14.875-41.554,22.309-1.823.979-3.672,2.012-5.637,2.579-.931.269-2.162-.504-3.257-.805.435-.845.688-1.875,1.331-2.505,4.445-4.349,9.046-8.541,13.455-12.925,7.96-7.913,15.835-15.914,23.69-23.931.452-.461.414-1.403.604-2.122-.625.212-1.359.28-1.858.658-3.031,2.293-6.071,4.582-8.994,7.009-11.298,9.381-22.555,18.811-33.823,28.227-1.364,1.14-2.96,2.454-4.48.947-.479-.475.358-2.779,1.101-3.911,9.096-13.868,18.29-27.672,27.452-41.497.761-1.149,1.502-2.314,2.189-3.506.138-.24.065-.897-.034-.925-.422-.12-1.059-.272-1.313-.055-.781.666-1.461,1.464-2.112,2.267-11.095,13.688-22.16,27.4-33.297,41.055-1.09,1.337-1.492,3.915-3.947,3.129-.29-.093.069-3.453.723-5.057,6.377-15.681,12.907-31.301,19.321-46.967.886-2.164,1.381-4.487,2.058-6.737-3.049.579-3.542,3.48-4.647,5.557-8.03,15.099-15.871,30.299-23.771,45.467-.877,1.685-1.702,3.399-2.652,5.043-.192.333-.837.404-1.272.597-.157-.457-.449-.918-.44-1.371.015-.679.254-1.352.377-2.031,3.578-19.701,7.174-39.398,10.696-59.109.318-1.783.165-3.65.23-5.479-2.63.66-2.31,3.176-2.799,4.931-5.239,18.805-10.326,37.652-15.46,56.487-.362,1.328-.737,2.655-1.172,3.96-.085.256-.475.568-.724.568-.233,0-.63-.355-.669-.598-.136-.848-.172-1.715-.202-2.577-.749-21.577-1.48-43.154-2.255-64.73-.074-2.06-.343-4.124-.69-6.157-.079-.465-.854-.812-1.31-1.212-.297.395-.742.752-.857,1.194-.214.826-.295,1.701-.327,2.559-.747,19.847-1.483,39.693-2.211,59.541-.095,2.59-.026,5.191-.243,7.77-.11,1.306-.686,2.573-1.053,3.858-.521-1.204-1.202-2.365-1.539-3.618-5.203-19.346-10.356-38.706-15.536-58.057-.357-1.333-.782-2.654-1.292-3.933-.158-.396-.706-.637-1.075-.949-.312.528-.831,1.035-.887,1.589-.085.837.111,1.713.261,2.559,1.093,6.119,2.215,12.233,3.308,18.353,2.399,13.433,4.79,26.867,7.166,40.305.24,1.357.429,2.736.477,4.111.019.548-.411,1.112-.637,1.667-.338-.361-.782-.667-.997-1.09-1.329-2.619-2.682-5.231-3.889-7.907-6.758-14.977-14.41-29.487-22.683-43.675-.695-1.191-1.382-2.394-2.182-3.515-.252-.353-.858-.453-1.301-.67-.202.565-.637,1.168-.553,1.686.134.829.621,1.597.946,2.396,6.88,16.969,13.761,33.938,20.633,50.91.324.8.698,1.609.824,2.448.091.607-.19,1.269-.304,1.907-.573-.213-1.212-.331-1.701-.668-.401-.277-.609-.825-.929-1.232-10.819-13.683-21.639-27.365-32.465-41.043-.857-1.083-1.69-2.199-2.67-3.162-.416-.409-1.182-.461-1.789-.676-.023.617-.269,1.345-.026,1.828.618,1.227,1.452,2.346,2.205,3.505,8.753,13.475,17.511,26.947,26.256,40.428.656,1.012,1.376,2.025,1.79,3.14.516,1.392-.566,2.13-1.613,1.72-1.391-.543-2.617-1.592-3.804-2.559-13.652-11.141-27.281-22.311-40.927-33.462-.798-.652-1.66-1.235-2.535-1.78-.249-.156-.919-.145-.94-.075-.128.425-.323,1.028-.123,1.316.583.845,1.302,1.607,2.035,2.336,11.388,11.34,22.786,22.671,34.183,34,.735.731,1.582,1.37,2.212,2.181.467.601.663,1.413.979,2.132-.916.314-1.947,1.063-2.722.854-1.641-.442-3.181-1.317-4.701-2.13-13.86-7.423-27.706-14.872-41.562-22.305-1.215-.652-2.45-1.284-3.728-1.795-.373-.149-.927.151-1.398.246.213.438.324.988.658,1.29.766.69,1.62,1.292,2.477,1.871,12.311,8.316,24.639,16.607,36.929,24.955,1.14.774,3.477,1.123,2.539,3.057-.352.724-2.682.607-4.116.641-.824.02-1.663-.418-2.491-.664-14.242-4.214-28.482-8.434-42.725-12.643-1.159-.342-2.324-.717-3.513-.885-.562-.08-1.188.293-1.785.46.437.488.807,1.067,1.326,1.44.55.396,1.233.615,1.871.879,11.011,4.553,22.024,9.105,33.038,13.649,1.597.658,3.228,1.236,4.801,1.944.332.149.482.705.716,1.073-.289.172-.564.457-.871.499-3.246.44-6.51,1.269-9.745,1.168-8.102-.255-16.193-.906-24.283-1.461-3.272-.224-6.53-.634-9.8-.894-.439-.035-.907.316-1.362.488.223.423.34,1.039.691,1.232.899.496,1.87.952,2.867,1.164,8.44,1.788,16.841,3.847,25.353,5.183,10.937,1.715,21.288-.54,30.982-5.946,3.769-2.102,7.712-3.893,11.574-5.829,25.692-12.884,51.93-14.556,78.634-3.484,7.009,2.907,13.728,6.517,20.548,9.871,7.386,3.632,15,6.249,22.687,5.669h0Zm-89.483,9.285c.936-.486,3.64-.979,4.466-2.495,2.468-4.529,1.792-9.368-.721-13.789-2.199-3.87-6.114-4.712-9.911-3.736-6.96,1.789-13.801,4.094-20.589,6.478-2.451.861-2.505,2.182-.332,3.617,7.856,5.187,16.387,8.684,27.086,9.925h0Zm25.482-.215c8.217-.746,16.281-4.509,23.794-9.579,1.823-1.23,1.491-2.375-1.104-3.703-6.973-3.57-14.414-5.663-22.173-6.634-3.257-.408-5.703.978-7.427,3.679-2.293,3.593-2.637,7.401-1.097,11.376,1.42,3.666,3.123,4.843,8.009,4.861h-.001Z"/>
      <path class="cls-1" d="m708.84,894.765c-21.094,6.358-42.587,10.451-64.561,11.692-21.65,1.224-43.16-.409-64.368-4.99-29.906-6.461-57.76-17.661-82.089-36.645-14.881-11.612-27.45-25.24-35.91-42.308-5.525-11.146-8.633-23.042-9.014-35.403-.344-11.157,2.233-21.948,6.883-32.169,5.641-12.4,13.237-23.478,22.967-32.991,6.167-6.029,12.728-11.655,19.097-17.477.459-.42.964-.89,1.195-1.46-.695,0-1.306.231-1.87.519-13.215,6.763-26.711,13.045-39.553,20.457-17.14,9.892-32.94,21.749-44.936,37.785-25.014,33.439-29.58,69.161-10.732,106.998,9.653,19.376,23.925,35.071,40.97,48.162,25.502,19.585,53.143,32.988,85.354,40.272,69.813-4.857,135.318-25.347,193.04-57.994,4.986-2.82,1.573-10.443-3.835-8.556-4.168,1.455-8.38,2.825-12.638,4.109Z"/>
      <path class="cls-1" d="m795.321,373.313c-11.434.581-22.34-2.071-32.823-6.241-5.15-2.049-9.569-1.912-14.218.905-3.096,1.876-6.445,3.33-9.634,5.061-8.427,4.573-17.299,7.963-26.824,9.147-4.799.596-7.861,2.953-10.259,6.879-6.116,10.012-14.076,18.27-23.649,25.094-12.481,8.898-26.384,13.326-41.573,14.231-11.693.696-23.005-1.899-34.447-3.572-10.341-1.513-20.784-1.685-30.583,2.663-4.998,2.218-9.857,5.019-14.248,8.273-6.173,4.574-8.981,11.208-9.277,18.877-.033.863.161,1.815-.151,2.558-.207.494-1.145.973-1.723.937-.586-.035-1.158-.681-1.694-1.112-6.598-5.304-13.227-10.572-19.766-15.949-3.494-2.872-3.521-3.333-1.107-7.337,3.986-6.614,9.385-12.01,15.497-16.564,16.945-12.624,36.071-16.964,56.84-13.789,11.258,1.72,22.354,4.84,33.656,5.856,22.304,2.006,41.056-5.658,55.283-23.318,2.919-3.624,2.424-4.193-2.053-6.033-7.504-3.086-14.875-6.496-22.294-9.788-.745-.33-1.453-.732-2.15-1.154-5.129-3.107-9.877-3.422-15.73-1.206-14.743,5.584-30.11,7.716-45.793,4.405-9.562-2.019-17.922-6.423-23.958-14.343-14.783-19.402-6.48-46.681,16.654-54.562,3.535-1.204,7.389-1.624,11.135-2.017,4.439-.467,4.604-.392,4.916-4.8.768-10.853,4.987-20.057,13.27-27.191,8.573-7.383,18.627-10.156,29.821-9.016,1.373.14,2.743.325,4.118.428,1.748.132,2.992-.601,3.656-2.267.256-.641.567-1.26.863-1.885,8.535-18.073,23.472-26.497,42.773-28.055,6.73-.543,13.433.01,20.005,1.963,14.363,4.267,25.169,12.591,31.207,26.594,1.848,4.285,1.977,4.58,6.602,3.632,6.27-1.287,12.407-.865,18.476.62,15.608,3.817,26.553,16.944,27.742,32.987.064.861.021,1.73.087,2.59.288,3.746.551,3.78,4.296,4.395,4.405.723,8.996,1.207,13.073,2.863,13.246,5.38,20.353,15.658,21.538,29.782,1.07,12.754-4.313,22.851-14.203,30.568-7.312,5.706-15.988,8.001-25.067,8.852-2.74.257-5.524.039-8.288.039l.004-.003Zm-10.564-18.749q-.019-.269,0,0c-4.837,0-9.672.02-14.509-.024-.639-.006-1.273-.334-1.911-.512.562-.54,1.066-1.168,1.704-1.593.561-.373,1.277-.512,1.918-.769,8.664-3.459,17.351-6.863,25.978-10.41,3.832-1.576,7.563-3.402,11.286-5.225.101-.05.196-.114.285-.189.723-.612.243-1.866-.704-1.851-.019,0-.038,0-.057.001-.497.018-.983.3-1.478.452-11.053,3.413-22.098,6.857-33.166,10.222-4.791,1.457-9.615,2.813-14.464,4.057-.472.121-1.007-.003-1.553-.173-.662-.205-.956-.976-.606-1.574.245-.42.514-.806.876-1.055,6.835-4.695,13.789-9.217,20.587-13.963,6.374-4.45,12.618-9.088,18.867-13.714.545-.404.704-1.331,1.042-2.016-.636.115-1.349.082-1.894.369-4.585,2.415-9.184,4.81-13.692,7.362-10.974,6.214-21.883,12.547-32.884,18.71-.622.349-1.42.385-2.237.385-.751,0-1.268-.752-1.004-1.454.255-.676.537-1.325.997-1.804,10.656-11.087,21.387-22.102,32.098-33.138.962-.991,1.978-1.943,2.84-3.017.007-.009.015-.018.022-.028.572-.751-.201-1.868-1.112-1.621-.173.047-.329.115-.458.218-4.06,3.221-8.113,6.458-12.028,9.853-9.395,8.149-18.699,16.403-28.077,24.573-1.377,1.2-3.043,3.245-4.866,1.643-1.798-1.579.535-3.075,1.348-4.361,8.583-13.585,17.264-27.108,25.912-40.651.65-1.017,1.319-2.032,1.845-3.113.148-.304-.181-.841-.292-1.271-.319.097-.726.103-.942.309-.746.712-1.489,1.443-2.119,2.256-10.458,13.525-20.876,27.082-31.377,40.573-.502.645-1.144,1.181-1.818,1.692-.723.548-1.764.013-1.726-.894.038-.893.122-1.769.424-2.561,3.571-9.359,7.292-18.661,10.995-27.968,3.065-7.705,6.209-15.379,9.226-23.103.064-.165.114-.336.153-.511.222-1.013-1.052-1.685-1.8-.966-.143.137-.285.274-.426.412-.117.114-.157.306-.244.455-9.135,15.699-16.988,32.041-24.445,48.585-.707,1.57-1.53,3.094-2.401,4.58-.2.341-.824.435-1.254.642-.158-.442-.499-.908-.444-1.322.544-4.106,1.026-8.227,1.768-12.3,3.097-16.983,6.301-33.947,9.388-50.932.023-.128.04-.258.052-.388.102-1.16-1.426-1.67-2.003-.658-.082.143-.163.287-.243.431-.162.291-.169.666-.258,1-5.409,20.179-10.813,40.36-16.256,60.529-.188.695-.77,1.283-1.17,1.92-.189-.647-.515-1.288-.544-1.941-.341-7.763-.615-15.529-.951-23.292-.695-16.041-1.413-32.082-2.135-48.123-.031-.684-.088-1.404-.336-2.027-.145-.365-.668-.625-1.076-.804-.093-.04-.558.423-.612.701-.196,1.011-.365,2.039-.41,3.066-.717,16.213-1.47,32.426-2.082,48.643-.241,6.387-.066,12.789-.272,19.178-.024.734-.176,1.463-.377,2.191-.273.988-1.654,1.065-2.033.112-.248-.623-.472-1.251-.639-1.895-5.031-19.378-10.005-38.772-15.019-58.154-.301-1.162-.786-2.283-1.262-3.39-.098-.229-.567-.467-.81-.419-.23.046-.558.465-.55.71.039,1.204.094,2.418.295,3.604,1.093,6.472,2.228,12.936,3.353,19.403,2.218,12.759,4.485,25.51,6.606,38.285.14.845.143,1.712.097,2.588-.054,1.041-1.415,1.408-1.975.529-.495-.778-.96-1.57-1.329-2.404-7.483-16.913-15.482-33.566-24.805-49.555-.136-.232-.296-.45-.474-.658-.724-.845-2.086-.172-1.875.92.059.306.139.603.251.889,5.045,12.865,10.215,25.68,15.259,38.544,2.017,5.146,3.82,10.375,5.677,15.582.153.429-.021.976-.043,1.467-.588-.178-1.421-.169-1.725-.565-2.205-2.878-4.246-5.881-6.446-8.764-9.01-11.81-18.044-23.602-27.127-35.355-.015-.019-.03-.038-.046-.057-.791-.949-2.376.148-1.748,1.212.005.008.009.015.014.023,6.265,10.343,12.608,20.637,18.906,30.96,2.609,4.277,5.222,8.555,7.681,12.918.272.483.338,1.081.363,1.703.03.746-.701,1.298-1.408,1.06-.435-.147-.85-.32-1.2-.582-1.658-1.235-3.174-2.661-4.74-4.018-11.615-10.069-23.223-20.147-34.852-30.2-.909-.786-1.929-1.466-2.971-2.068-.31-.178-.872.08-1.319.139.087.326.094.709.279.964.401.558.876,1.068,1.35,1.569,10.692,11.289,21.387,22.575,32.087,33.857.951,1.003,2.05,1.889,2.862,2.991.422.572.749,1.832.44,2.183-.451.511-1.643.844-2.29.613-1.604-.573-3.111-1.454-4.601-2.308-13.94-7.985-27.862-16.003-41.821-23.954-.122-.069-.25-.127-.383-.175-.989-.361-1.805.867-1.158,1.699.068.087.138.172.212.253.564.627,1.377,1.031,2.078,1.536,12.052,8.691,24.109,17.376,36.141,26.095.284.206.526.469.753.753.433.54.262,1.349-.364,1.645-.519.246-1.026.438-1.46.333-3.689-.898-7.339-1.973-10.958-3.13-12.174-3.89-24.323-7.861-36.502-11.73-.17-.054-.345-.095-.523-.125-1.078-.183-1.653,1.225-.805,1.914.126.102.254.201.387.294.835.591,1.833.961,2.783,1.376,9.5,4.143,19.007,8.269,28.506,12.414,2.374,1.036,4.739,2.097,7.073,3.217.362.174.541.729.805,1.109-.326.103-.646.279-.976.296-5.167.272-10.362.97-15.499.68-8.775-.493-17.515-1.62-26.273-2.431-.154-.014-.311-.004-.469.023-.759.127-1.151,1-.73,1.644.178.272.374.491.618.575,3.753,1.296,7.508,2.667,11.367,3.557,9.083,2.096,18.19,4.173,27.65,2.761,6.235-.93,12.022-3.085,17.575-5.981,9.507-4.959,19.091-9.747,29.5-12.586,10.775-2.939,21.659-4.207,32.805-2.391,11.878,1.935,23.123,5.657,33.747,11.309,3.965,2.11,7.956,4.184,12.021,6.093,7.198,3.38,14.907,4.517,22.734,4.02,9.53-.605,18.719-3.151,27.788-6.058,1.143-.366,2.24-.895,3.32-1.425.234-.115.444-.578.411-.849-.03-.248-.386-.62-.632-.648-.846-.096-1.716-.153-2.561-.069-8.748.862-17.55.948-26.296,1.831h0Zm-68.651,17.044c7.9-.838,16.287-4.636,24.045-9.973,1.89-1.3,1.795-2.233-.342-3.343-6.938-3.603-14.322-5.83-22.095-6.717-3.455-.394-5.998,1.112-7.816,3.965-2.02,3.172-2.801,6.617-2.233,10.361.718,4.729,1.981,5.804,8.441,5.706h0Zm-19.453-9.689c.046-6.98-3.429-10.916-9.077-10.252-7.41.872-14.46,3.144-21.127,6.492-2.618,1.315-2.701,2.351-.223,3.973,6.226,4.074,12.77,7.508,20.185,8.941,6.315,1.221,8.993-.617,10.063-6.992.142-.845.143-1.714.177-2.161h.001Z"/>
      <path class="cls-1" d="m723.894,654.43l7.067,38.416c2.439,13.258,11.31,23.614,22.668,26.461l33.607,8.424c.961.241.961,1.6,0,1.841l-33.607,8.424c-11.357,2.847-20.229,13.203-22.668,26.461l-7.067,38.416c-.191,1.038-1.686,1.038-1.877,0l-7.067-38.416c-2.439-13.258-11.31-23.614-22.668-26.461l-33.607-8.424c-.961-.241-.961-1.6,0-1.841l33.607-8.424c11.357-2.847,20.229-13.203,22.668-26.461l7.067-38.416c.191-1.038,1.686-1.038,1.877,0Z"/>
    </g>
  </g>
</svg>