<?xml version="1.0" encoding="UTF-8"?>
<svg id="Layer_2" data-name="Layer 2" xmlns="http://www.w3.org/2000/svg" viewBox="0 0 130 150">
  <defs>
    <style>
      .cls-1 {
        fill: currentColor;
      }
    </style>
  </defs>
  <g id="Layer_2-2" data-name="Layer 2">
    <path class="cls-1" d="m65.938.778l7.067,38.416c2.439,13.258,11.31,23.614,22.668,26.461l33.607,8.424c.961.241.961,1.6,0,1.841l-33.607,8.424c-11.357,2.847-20.229,13.203-22.668,26.461l-7.067,38.416c-.191,1.038-1.686,1.038-1.877,0l-7.067-38.416c-2.439-13.258-11.31-23.614-22.668-26.461L.721,75.92c-.961-.241-.961-1.6,0-1.841l33.607-8.424c11.357-2.847,20.229-13.203,22.668-26.461L64.062.778c.191-1.038,1.686-1.038,1.877,0Z"/>
  </g>
</svg>