<?xml version="1.0" encoding="UTF-8"?>
<svg id="Layer_2" data-name="Layer 2" xmlns="http://www.w3.org/2000/svg" viewBox="0 0 2626 400">
  <defs>
    <style>
      .cls-1 {
        fill: currentColor;
      }

      .cls-2 {
        fill: #b8872f;
      }
    </style>
  </defs>
  <g id="Layer_2-2" data-name="Layer 2">
    <g>
      <path class="cls-1" d="m2625.511,345.377c-1.155-3.147-3.158-4.154-6.019-3.014-18.358,7.46-32.683,11.184-43.003,11.184-11.477,0-19.781-4.584-24.942-13.764-5.161-9.167-7.741-23.788-7.741-43.869v-160.859c0-27.528-6.019-48.886-18.061-64.087-12.04-15.188-29.82-22.795-53.324-22.795-14.338,0-30.531,2.58-48.593,7.74-18.061,5.164-35.262,12.191-51.604,21.078-16.341,8.897-29.82,18.494-40.422,28.815-10.617,10.324-15.911,20.941-15.911,31.829,0,6.317,2.285,12.191,6.881,17.634,4.581,5.457,11.744,8.17,21.501,8.17,12.04,0,20.063-3.87,24.082-11.611,4.005-7.744,6.879-15.618,8.601-23.658,1.72-8.601,4.729-17.768,9.031-27.525,4.299-9.744,11.032-18.198,20.211-25.375,9.164-7.167,20.923-10.754,35.262-10.754,16.045,0,29.093,7.177,39.132,21.505,10.025,14.341,15.052,39.289,15.052,74.838v53.522c0,2.861-1.775,5.423-4.453,6.427l-90.154,33.816c-20.641,7.457-37.561,15.201-50.742,23.225-13.197,8.037-22.792,16.774-28.813,26.235-6.019,9.464-9.031,19.934-9.031,31.398,0,16.061,5.726,29.972,17.201,41.719,11.464,11.747,28.087,17.634,49.884,17.634,12.04,0,23.652-2.013,34.833-6.02,11.18-4.007,23.651-10.604,37.412-19.784l35.296-22.898c4.134-2.682,9.717-.257,10.489,4.61,1.687,10.63,4.486,19.45,8.399,26.459,6.881,12.327,14.043,18.494,21.501,18.494,2.285,0,4.583-.577,6.881-1.72l88.586-42.149c2.863-1.143,3.723-3.294,2.58-6.45Zm-165.99,3.87c-9.179,5.737-16.92,9.461-23.222,11.181-6.316,1.723-12.337,2.583-18.061,2.583-14.917,0-26.662-4.867-35.262-14.624-8.601-9.744-12.9-21.211-12.9-34.409,0-7.447,1.571-14.328,4.729-20.645,3.145-6.304,8.171-12.044,15.052-17.204,6.881-5.164,15.481-9.744,25.802-13.764l70.646-27.33c4.497-1.74,9.339,1.579,9.339,6.402v82.002c0,.014,0,.027,0,.041.002,2.441-1.228,4.715-3.317,5.976l-32.805,19.792Z"/>
      <path class="cls-1" d="m240.385,347.097c-2.015-2.58-4.165-3.294-6.449-2.15-7.459,6.317-17.068,11.907-28.813,16.771-11.759,4.88-25.089,7.314-39.992,7.314-21.797,0-38.569-5.727-50.314-17.204-11.759-11.464-17.631-28.952-17.631-52.473V85.297c1.077.018,2.178.019,3.248.04h94.39c4.708,0,9.223-1.871,12.552-5.2l10.983-10.984c-.606-1.463-.651-1.571-1.257-3.034h-119.916V2.58c0-1.72-2.15-2.58-6.449-2.58s-6.451.86-6.451,2.58c-1.72,18.928-9.89,34.409-24.512,46.453-14.62,12.044-33.408,18.361-56.333,18.924-2.298,0-3.44,1.87-3.44,5.59s1.142,5.594,3.44,5.594c13.183,0,22.926,1.007,29.242,3.01,6.303,2.017,10.32,6.45,12.042,13.334,1.72,6.88,2.58,17.204,2.58,30.965v202.152c0,17.781,4.005,31.825,12.04,42.149,8.022,10.324,18.344,17.634,30.963,21.935,12.605,4.3,25.802,6.454,39.562,6.454,18.343,0,35.974-3.59,52.894-10.754,16.905-7.164,35.974-18.778,57.193-34.839,2.285-1.72,2.433-3.87.43-6.45Z"/>
      <path class="cls-1" d="m1392.018,378.492c-22.939,0-37.707-3.87-44.293-11.611-6.598-7.744-9.89-23.658-9.89-47.743v-166.88c0-35.552-8.171-61.787-24.512-78.711-16.34-16.908-39.427-25.375-69.233-25.375-25.237,0-49.884,7.74-73.966,23.225-18.519,11.908-37.214,29.437-56.071,52.536-3.304-21.77-10.974-38.724-23.053-50.815-16.638-16.624-39.859-24.945-69.665-24.945-25.237,0-49.884,7.74-73.965,23.225-17.488,11.244-34.976,27.506-52.464,48.73v-.557c0-20.454-2.512-36.584-7.528-48.378-2.845-1.839-5.002-3.234-7.847-5.074h0c-32.226,0-64.049,7.164-93.168,20.973l-21.327,10.114c-2.298,1.153-2.728,3.157-1.29,6.02,1.425,2.877,3.293,4.02,5.591,3.44,9.742-4.004,18.491-7.164,26.232-9.461,7.741-2.287,14.473-3.44,20.211-3.44,11.464,0,19.351,4.447,23.652,13.331,4.299,8.897,6.449,22.798,6.449,41.722v170.32c0,24.085-3.305,39.999-9.89,47.743-6.598,7.74-21.071,11.611-43.433,11.611-1.72,0-2.58,1.723-2.58,5.164s.86,5.16,2.58,5.16c9.744,0,21.502-.283,35.262-.86,13.762-.563,28.087-.86,43.003-.86s29.095.297,42.573.86c13.465.577,25.075.86,34.833.86,1.72,0,2.58-1.72,2.58-5.16s-.86-5.164-2.58-5.164c-22.362,0-36.849-3.87-43.433-11.611-6.599-7.744-9.89-23.658-9.89-47.743v-147.433c0-28.056,14.045-54.248,37.412-69.77h0c20.346-13.467,40.852-20.215,61.494-20.215,48.728,0,73.105,33.549,73.105,100.643v136.775c0,24.085-3.306,39.999-9.89,47.743-6.599,7.74-21.072,11.611-43.433,11.611-1.72,0-2.58,1.723-2.58,5.164s.86,5.16,2.58,5.16c9.742,0,21.501-.283,35.262-.86,13.76-.563,28.087-.86,43.003-.86s29.093.297,42.572.86c13.467.577,25.372.86,35.692.86,1.721,0,2.581-1.72,2.581-5.16s-.86-5.164-2.581-5.164c-22.939,0-37.707-3.87-44.291-11.611-6.599-7.744-9.892-23.658-9.892-47.743v-168.742c-.003-9.653,3.857-18.906,10.672-25.742,8.637-8.664,17.831-16.249,27.602-22.719,20.346-13.467,40.852-20.215,61.494-20.215,49.304,0,73.965,33.549,73.965,100.643v136.775c0,24.085-3.441,39.999-10.32,47.743-6.881,7.74-21.502,11.611-43.863,11.611-1.72,0-2.581,1.723-2.581,5.164s.862,5.16,2.581,5.16c10.32,0,22.214-.283,35.692-.86,13.465-.563,27.655-.86,42.572-.86s29.243.297,43.003.86c13.762.577,25.507.86,35.262.86,1.72,0,2.581-1.72,2.581-5.16s-.862-5.164-2.581-5.164Z"/>
      <path class="cls-1" d="m2182.175,59.357c-11.759-6.884-23.651-10.324-35.692-10.324-9.177,0-18.786,2.73-28.812,8.17-10.039,5.457-21.931,15.204-35.692,29.248-8.791,8.984-19.126,20.385-30.961,34.159v-1.04c0-20.449-2.511-36.577-7.524-48.369-2.849-1.842-5.01-3.24-7.86-5.082h0c-32.22,0-64.037,7.162-93.15,20.969l-21.336,10.118c-2.298,1.153-2.728,3.157-1.29,6.02,1.425,2.877,3.293,4.02,5.591,3.44,9.742-4.004,18.491-7.164,26.232-9.461,7.741-2.287,14.473-3.44,20.211-3.44,11.464,0,19.351,4.447,23.652,13.331,4.299,8.897,6.449,22.798,6.449,41.722v170.32c0,24.085-3.305,39.999-9.89,47.743-6.598,7.74-21.071,11.611-43.433,11.611-1.72,0-2.58,1.723-2.58,5.164s.86,5.16,2.58,5.16c9.744,0,21.502-.283,35.262-.86,13.762-.563,28.087-.86,43.003-.86,20.641,0,40.275.297,58.915.86,18.624.577,34.833.86,48.593.86,2.285,0,3.44-1.72,3.44-5.16s-1.155-5.164-3.44-5.164c-23.517,0-41.283-1.423-53.324-4.3-12.04-2.864-20.078-8.737-24.082-17.634-4.018-8.884-6.019-21.358-6.019-37.419v-153.178c0-21.346,8.332-41.85,23.221-57.144h0c9.744-10.024,17.485-16.478,23.222-19.354,5.724-2.864,11.18-4.3,16.341-4.3,9.164,0,16.623,2.017,22.361,6.02,5.726,4.02,11.18,8.32,16.341,12.904,5.161,4.597,11.464,6.88,18.921,6.88,9.166,0,16.193-2.58,21.072-7.74,4.864-5.16,7.309-11.464,7.309-18.924,0-9.744-5.886-18.064-17.631-24.945Z"/>
      <g>
        <path class="cls-1" d="m668.127,137.635c-13.197-26.948-32.251-49.033-57.193-66.237-24.942-17.204-54.91-25.805-89.876-25.805-20.641,0-41.713,3.44-63.214,10.321-21.502,6.884-41.43,17.354-59.775,31.398-18.356,14.061-32.978,31.975-43.863,53.763-10.899,21.801-16.341,47.609-16.341,77.418,0,32.125,6.881,62.084,20.643,89.895,13.76,27.822,33.246,50.04,58.483,66.664,25.224,16.628,54.748,24.948,88.586,24.948,33.248,0,63.644-7.177,91.166-21.508,27.522-14.328,49.589-34.689,66.225-61.074,16.623-26.372,24.942-57.917,24.942-94.622,0-29.812-6.599-58.2-19.783-85.162Zm-65.364,213.762c-17.78,21.505-41.86,32.259-72.245,32.259-26.38,0-49.749-8.604-70.095-25.808-20.359-17.204-36.271-40.429-47.733-69.677-11.477-29.245-17.201-61.357-17.201-96.342,0-41.856,8.601-73.978,25.802-96.342,17.201-22.368,40.987-33.549,71.385-33.549,26.365,0,49.882,7.89,70.525,23.655,20.641,15.781,36.834,37.569,48.593,65.377,11.745,27.822,17.631,59.783,17.631,95.912,0,48.173-8.896,83.012-26.662,104.516Z"/>
        <path class="cls-2" d="m513.839,147.507l7.167,38.969c2.473,13.449,11.471,23.954,22.99,26.842l34.084,8.546c.975.244.975,1.623,0,1.867l-34.084,8.546c-11.518,2.888-20.516,13.393-22.99,26.842l-7.167,38.969c-.194,1.052-1.71,1.052-1.903,0l-7.167-38.969c-2.473-13.449-11.471-23.954-22.99-26.842l-34.084-8.546c-.975-.244-.975-1.623,0-1.867l34.084-8.546c11.518-2.888,20.516-13.393,22.99-26.842l7.167-38.969c.194-1.052,1.71-1.052,1.903,0Z"/>
      </g>
      <g>
        <path class="cls-1" d="m1822.156,137.635c-13.197-26.948-32.251-49.033-57.193-66.237-24.942-17.204-54.91-25.805-89.876-25.805-20.641,0-41.713,3.44-63.214,10.321-21.502,6.884-41.43,17.354-59.775,31.398-18.356,14.061-32.978,31.975-43.863,53.763-10.899,21.801-16.341,47.609-16.341,77.418,0,32.125,6.881,62.084,20.643,89.895,13.76,27.822,33.246,50.04,58.483,66.664,25.224,16.628,54.748,24.948,88.586,24.948,33.248,0,63.644-7.177,91.166-21.508,27.522-14.328,49.589-34.689,66.225-61.074,16.623-26.372,24.942-57.917,24.942-94.622,0-29.812-6.599-58.2-19.783-85.162Zm-65.364,213.762c-17.78,21.505-41.86,32.259-72.245,32.259-26.38,0-49.749-8.604-70.095-25.808-20.359-17.204-36.271-40.429-47.733-69.677-11.477-29.245-17.201-61.357-17.201-96.342,0-41.856,8.601-73.978,25.802-96.342,17.201-22.368,40.987-33.549,71.385-33.549,26.365,0,49.882,7.89,70.525,23.655,20.641,15.781,36.834,37.569,48.593,65.377,11.745,27.822,17.631,59.783,17.631,95.912,0,48.173-8.896,83.012-26.662,104.516Z"/>
        <path class="cls-2" d="m1667.868,147.507l7.167,38.969c2.473,13.449,11.471,23.954,22.99,26.842l34.084,8.546c.975.244.975,1.623,0,1.867l-34.084,8.546c-11.518,2.888-20.516,13.393-22.99,26.842l-7.167,38.969c-.194,1.052-1.71,1.052-1.903,0l-7.167-38.969c-2.473-13.449-11.471-23.954-22.99-26.842l-34.084-8.546c-.975-.244-.975-1.623,0-1.867l34.084-8.546c11.518-2.888,20.516-13.393,22.99-26.842l7.167-38.969c.194-1.052,1.71-1.052,1.903,0Z"/>
      </g>
    </g>
  </g>
</svg>